<svg xmlns="http://www.w3.org/2000/svg" xmlns:xlink="http://www.w3.org/1999/xlink" width="425.95" height="93.85" viewBox="-10 0 425.95 93.85"><defs><style>.b{font-size:80px;fill:#fff;font-family:Andika-Bold,Andika;font-weight:700;letter-spacing:0.09em;}.c{fill:#aaa;}.e{fill:#fff;}.f{fill:0;}</style></defs><text class="b" transform="translate(105 75)">RailDit</text><g class="d" transform="scale(1.2), translate(-10 -10)"><path class="e" d="M86.5,73.8c-26.63.28-53.57.2-80.2.48C8.9,58.56,14.18,48.1,17.83,42.16a34.11,34.11,0,0,1,6.59-8.24S34,25.48,47.48,25.69C62.7,25.93,79.16,42,84.54,66" /><path class="e" d="M17.83,43c-.95-3.41-3.77-13.6-4.12-16.47a14.84,14.84,0,0,1,0-1.64,19,19,0,0,1,2.48-3.3C18.66,19.1,27,22.83,36.77,27.34" /><path class="e" d="M74.3,42.61c1-3.42,3.77-13.6,4.12-16.47a15,15,0,0,0,0-1.65A19.44,19.44,0,0,0,76,21.2C73.48,18.73,65.18,22.46,55.36,27" /><path class="c" d="M37.6,53.69c.82,2.47,6.68,5.43,11.25,4.27a9,9,0,0,0,4.39-2.62,3.82,3.82,0,0,0,1.21-2.42s-.27-4-1.21-2.52a15.24,15.24,0,0,1-3.71,3.48c-2.67,1.52-7.15-.35-10.29-3.48C38.42,49.57,37.23,52.58,37.6,53.69Z" transform="translate(0 7)"/><circle class="f" cx="33.42" cy="49.7" r="5.9" /><circle class="f" cx="58.88" cy="49.44" r="5.9" /></g></svg>