<svg xmlns="http://www.w3.org/2000/svg" xmlns:xlink="http://www.w3.org/1999/xlink" width="425.95" height="93.85" viewBox="-10 0 425.95 93.85"><defs><style>.a,.b{fill:#fff}.b{fill:#aaa;}.c{fill:0;}</style></defs><g class="o" style="transform: translate(108px, 11px);"><path class="a" d="M41.39,56.77c-1.49-2-3-4.13-4.55-6.29L32.5,44.42l-2.76-3.86c.28-.09.57-.19.85-.3a17.68,17.68,0,0,0,8-5.8,16.07,16.07,0,0,0,3-10.11A16,16,0,0,0,39,15a15.73,15.73,0,0,0-7.21-5.56,28.44,28.44,0,0,0-10.7-1.86q-3.45,0-6.88.06c-2.29,0-4.39.08-6.31.14s-4,.11-6.34.19a49.54,49.54,0,0,1,.5,7.29q.08,4.93.08,10.68V48c0,3.85,0,7.26-.08,10.21A45.35,45.35,0,0,1,1.55,65h12.3a50.92,50.92,0,0,1-.49-6.76c-.06-3-.1-6.38-.1-10.23V42.12h5.43L33.77,65H47.64c-.44-.47-1.23-1.44-2.35-2.93S42.87,58.8,41.39,56.77ZM13.26,16.53l2.88-.13q1.3-.06,3.57-.06,5.19,0,8,1.89t2.77,6.31q0,5.16-3,7.17a14.41,14.41,0,0,1-8.12,2H13.26Z" /><path class="a" d="M100,44.27V26.1a68.55,68.55,0,0,0-7.52-1.27A74.45,74.45,0,0,0,84,24.35a24.44,24.44,0,0,0-10.47,2.07A20.33,20.33,0,0,0,66.28,32a23.56,23.56,0,0,0-4.21,7.91A30,30,0,0,0,60.7,49q0,8.28,3.4,12.63A10.2,10.2,0,0,0,72.42,66,13.46,13.46,0,0,0,80,63.68,24.53,24.53,0,0,0,86,58a32.27,32.27,0,0,0,4-6.74v2.23a31.2,31.2,0,0,0,.29,3.8,41.62,41.62,0,0,0,.8,4.54,12.32,12.32,0,0,0,1,3.1h10.39a45.71,45.71,0,0,1-1.83-8.3A91.39,91.39,0,0,1,100,44.27ZM88.82,36.46a13,13,0,0,1-.8,3.77,41.14,41.14,0,0,1-2.17,5.25,46.53,46.53,0,0,1-3,5.35A22.49,22.49,0,0,1,79.35,55a5.18,5.18,0,0,1-3.42,1.64c-1.17,0-2.18-.71-3-2.13A10.72,10.72,0,0,1,71.64,49a29.59,29.59,0,0,1,1-7.7,12.54,12.54,0,0,1,3.32-5.9,8.9,8.9,0,0,1,6.45-2.26,22.43,22.43,0,0,1,4.06.29c1,.19,1.84.36,2.38.49Z" /><path class="a" d="M125.55,4a6.59,6.59,0,0,0-6.83,6.84,6.6,6.6,0,0,0,1.93,4.94,7.31,7.31,0,0,0,9.83,0,6.66,6.66,0,0,0,1.91-4.94A6.56,6.56,0,0,0,125.55,4Z" /><path class="a" d="M131.12,52.49c-.06-2.38-.1-4.41-.1-6.07V25.13H119.5a82.66,82.66,0,0,1,.49,8.26c.06,3.45.1,7.08.1,10.88V65H131.8c-.15-1.4-.29-3.24-.41-5.51S131.19,54.87,131.12,52.49Z" /><path class="a" d="M163.32,52.47c-.06-2.37-.1-4.39-.1-6V2.47H151.5a168.31,168.31,0,0,1,.79,18.36V65H164c-.15-1.43-.29-3.28-.41-5.55S163.39,54.84,163.32,52.47Z" /><path class="a" d="M223.92,15.32a23.24,23.24,0,0,0-7-4.86,30.91,30.91,0,0,0-7.72-2.3,45.52,45.52,0,0,0-7.11-.61l-4.78,0c-1.79,0-3.58,0-5.39.08s-3.48.08-5,.13-2.72.11-3.58.16a47.87,47.87,0,0,1,.51,7.29q.08,4.93.08,10.68V47.2c0,3.85-.06,7.39-.1,10.6a46.16,46.16,0,0,1-.49,7.17l7,.2,5.95.13c2,0,3.66.06,5,.06a38.32,38.32,0,0,0,7.72-.84,32.34,32.34,0,0,0,8-2.79A25.54,25.54,0,0,0,224,56.42,24.89,24.89,0,0,0,229.08,48a34,34,0,0,0,1.89-12A35.27,35.27,0,0,0,229,23.57,23,23,0,0,0,223.92,15.32Zm-6.6,32.89a15.62,15.62,0,0,1-6.7,6.21,19.53,19.53,0,0,1-8.44,1.92c-1.54,0-2.92-.05-4.16-.14s-2.23-.17-3-.25V16.5c.84-.06,2-.1,3.48-.14s2.76-.06,3.83-.06a20.91,20.91,0,0,1,9.06,1.89,13.6,13.6,0,0,1,6.27,6.39Q220,29.08,220,36.85,220,43.92,217.32,48.21Z" /><path class="a" d="M255.16,4a6.59,6.59,0,0,0-6.83,6.84,6.6,6.6,0,0,0,1.93,4.94,7.29,7.29,0,0,0,9.82,0A6.63,6.63,0,0,0,262,10.87,6.57,6.57,0,0,0,255.16,4Z" /><path class="a" d="M260.73,52.49c-.07-2.38-.1-4.41-.1-6.07V25.13H249.11a82.66,82.66,0,0,1,.49,8.26q.09,5.18.09,10.88V65h11.72c-.15-1.4-.29-3.24-.41-5.51S260.79,54.87,260.73,52.49Z" /><path class="a" d="M299.35,56.92a5.57,5.57,0,0,1-2.85-.64,4.19,4.19,0,0,1-1.6-2.79,30.88,30.88,0,0,1-.51-6.57V33.53h11.92V25.71H294.39V13.41H283.46v12.3H276v7.82h7.43V54.42a11.84,11.84,0,0,0,1.81,7A9.4,9.4,0,0,0,290.14,65a21.33,21.33,0,0,0,6.71,1,17.58,17.58,0,0,0,4.69-.72,20.67,20.67,0,0,0,5.35-2.48V54Q302.17,56.93,299.35,56.92Z" /></g><g class="d" transform="scale(1.2), translate(-10 -10)"><path class="a" d="M86.5,73.8c-26.63.28-53.57.2-80.2.48C8.9,58.56,14.18,48.1,17.83,42.16a34.11,34.11,0,0,1,6.59-8.24S34,25.48,47.48,25.69C62.7,25.93,79.16,42,84.54,66" /><path class="a" d="M17.83,43c-.95-3.41-3.77-13.6-4.12-16.47a14.84,14.84,0,0,1,0-1.64,19,19,0,0,1,2.48-3.3C18.66,19.1,27,22.83,36.77,27.34" /><path class="a" d="M74.3,42.61c1-3.42,3.77-13.6,4.12-16.47a15,15,0,0,0,0-1.65A19.44,19.44,0,0,0,76,21.2C73.48,18.73,65.18,22.46,55.36,27" /><path class="b" d="M37.6,53.69c.82,2.47,6.68,5.43,11.25,4.27a9,9,0,0,0,4.39-2.62,3.82,3.82,0,0,0,1.21-2.42s-.27-4-1.21-2.52a15.24,15.24,0,0,1-3.71,3.48c-2.67,1.52-7.15-.35-10.29-3.48C38.42,49.57,37.23,52.58,37.6,53.69Z" transform="translate(0 7)" /><circle class="c" cx="33.42" cy="49.7" r="5.9" /><circle class="c" cx="58.88" cy="49.44" r="5.9" /></g></svg>